<?xml version="1.0" encoding="UTF-8" standalone="no"?>
<!-- Created with Inkscape (http://www.inkscape.org/) -->

<svg
   width="210mm"
   height="297mm"
   viewBox="0 0 210 297"
   version="1.1"
   id="svg1"
   xml:space="preserve"
   inkscape:version="1.4 (86a8ad7, 2024-10-11)"
   sodipodi:docname="mano.svg"
   xmlns:inkscape="http://www.inkscape.org/namespaces/inkscape"
   xmlns:sodipodi="http://sodipodi.sourceforge.net/DTD/sodipodi-0.dtd"
   xmlns="http://www.w3.org/2000/svg"
   xmlns:svg="http://www.w3.org/2000/svg"><sodipodi:namedview
     id="namedview1"
     pagecolor="#ffffff"
     bordercolor="#000000"
     borderopacity="0.25"
     inkscape:showpageshadow="2"
     inkscape:pageopacity="0.0"
     inkscape:pagecheckerboard="0"
     inkscape:deskcolor="#d1d1d1"
     inkscape:document-units="mm"
     inkscape:zoom="0.72426347"
     inkscape:cx="288.56902"
     inkscape:cy="731.08754"
     inkscape:window-width="1920"
     inkscape:window-height="1094"
     inkscape:window-x="-11"
     inkscape:window-y="-11"
     inkscape:window-maximized="1"
     inkscape:current-layer="layer1" /><defs
     id="defs1" /><g
     inkscape:label="Capa 1"
     inkscape:groupmode="layer"
     id="layer1"><path
       style="fill:#000000;stroke-width:3.22974"
       d="m 130.90139,294.88057 c -2.2498,-1.12408 -20.8769,-11.8269 -41.393514,-23.78408 -34.719387,-20.23454 -37.477433,-22.01039 -39.821711,-25.64035 -6.727055,-10.41628 -5.043314,-26.04343 3.50251,-32.50745 4.4162,-3.34038 6.757544,-3.47199 19.159447,-1.07683 6.082303,1.17464 11.25756,1.97979 11.500579,1.78917 0.242867,-0.19072 -7.682044,-27.93777 -17.61129,-61.66042 -15.771579,-53.565175 -18.0564,-62.138088 -18.079054,-67.835463 -0.05755,-14.48261 9.385169,-24.035564 19.994374,-20.227568 7.412696,2.660657 8.428511,4.718177 17.413096,35.27009 3.782328,12.861691 7.015304,23.489591 7.184458,23.617521 0.168969,0.12808 1.584626,-1.69986 3.145559,-4.06176 6.646656,-10.0573 17.421706,-9.83857 24.413916,0.49558 l 2.23521,3.30357 1.93686,-3.31191 c 2.41457,-4.12884 7.19036,-7.81394 10.80379,-8.3364 5.67615,-0.82075 11.89923,2.8791 15.4098,9.16169 l 1.43508,2.5683 1.07913,-2.22959 c 1.91555,-3.95777 3.35954,-5.65634 6.68725,-7.86639 4.03478,-2.67956 9.49825,-2.93523 13.37932,-0.62605 5.97248,3.5535 6.95785,6.04029 20.3238,51.2919 15.33081,51.90382 16.04238,55.055 15.34014,67.93715 -1.11542,20.46268 -10.09179,36.5124 -25.39115,45.39919 -5.71418,3.31913 -35.27984,16.82052 -41.5827,18.98905 -5.23029,1.79953 -6.26809,1.73769 -11.0649,-0.65895 z m 24.23433,-11.82636 c 8.96895,-3.9498 18.92234,-8.51459 22.11866,-10.144 12.39099,-6.31671 19.97056,-14.73929 24.24195,-26.93807 2.63778,-7.53347 3.57355,-21.9803 1.93528,-29.87878 -2.67712,-12.90734 -26.78478,-92.75931 -28.72293,-95.13932 -2.30703,-2.83293 -6.98014,-4.89691 -9.64096,-4.2581 -1.02054,0.24494 -3.1723,1.57983 -4.78173,2.96635 -3.78668,3.26213 -5.40658,9.00192 -4.50147,15.94978 0.58422,4.48456 0.44953,5.28118 -0.96215,5.69094 -0.90281,0.26208 -1.87009,0.30354 -2.14946,0.0922 -0.27927,-0.21124 -1.74157,-4.45344 -3.24921,-9.42686 -2.80714,-9.26015 -4.72773,-12.20808 -9.20614,-14.13063 -3.91263,-1.67967 -8.63532,0.32331 -11.63742,4.93559 -2.00797,3.08497 -2.33473,4.67753 -2.33473,11.37994 0,6.67845 -0.23395,7.82711 -1.6355,8.03163 -1.85122,0.27022 -1.83447,0.3046 -4.79632,-9.87904 -1.18883,-4.0876 -2.76154,-8.32216 -3.4949,-9.41018 -1.80874,-2.68341 -6.03309,-5.08221 -8.9499,-5.08221 -6.45046,0 -11.822951,8.97611 -10.724287,17.91769 0.337938,2.75102 0.346479,5.53042 0.01856,6.17647 -0.878783,1.73219 -3.217268,1.42728 -3.816195,-0.49757 -0.28631,-0.91979 -4.699837,-15.79524 -9.808214,-33.05666 C 77.930278,91.091994 73.02355,75.874986 72.134776,74.537846 c -3.579269,-5.385019 -9.141891,-6.496938 -14.02489,-2.803463 -1.620685,1.225906 -3.502621,3.483367 -4.182058,5.016594 -2.822552,6.369638 -1.986735,9.984687 17.598699,76.116503 10.370571,35.01697 18.855566,64.54175 18.855566,65.61062 0,1.08783 -0.685306,2.14232 -1.556701,2.39523 -0.856167,0.2486 -7.458261,-0.67066 -14.671314,-2.04261 -15.543414,-2.95644 -17.354273,-2.75876 -21.101471,2.3032 -2.093534,2.82812 -2.463966,4.28118 -2.463966,9.66554 0,10.90076 -1.321814,9.82118 44.609345,36.43484 21.833154,12.65068 40.581724,23.00124 41.663534,23.00124 1.0818,0 9.30514,-3.23163 18.27409,-7.1814 z M 11.904032,133.90721 c -1.708846,-1.55744 -2.3323202,-5.12269 -1.265926,-7.23894 1.184932,-2.35151 18.521899,-18.05748 20.275122,-18.36772 2.396825,-0.42413 4.445945,2.09064 4.445945,5.45625 0,3.05076 -0.657528,3.86654 -9.84116,12.20971 -5.412668,4.91727 -10.443244,8.94052 -11.179092,8.94052 -0.735811,0 -1.831505,-0.44991 -2.434889,-0.99982 z M 13.285524,77.994972 C 7.9000768,76.594799 2.8521945,74.963907 2.068033,74.370742 0.08144836,72.868099 0.19916914,66.797137 2.2447999,65.249775 c 1.4817594,-1.120794 2.4016897,-1.0256 12.2000701,1.262311 11.663567,2.723408 13.634555,3.633701 14.527672,6.709519 0.809712,2.788519 -1.797674,7.449698 -4.125722,7.375541 -0.973296,-0.03089 -6.175885,-1.202002 -11.561333,-2.602174 z M 91.431219,59.194711 c -0.576944,-0.815436 -1.049015,-2.832423 -1.049015,-4.482142 0,-2.709166 0.952648,-3.865 9.841196,-11.940059 5.41263,-4.917276 10.5199,-8.94052 11.34947,-8.94052 2.10877,0 4.45943,4.6245 3.73781,7.353554 C 114.60079,43.870441 96.847228,60.10815 94.251727,60.446459 93.259085,60.575947 92.01908,60.02554 91.431219,59.194711 Z M 38.931499,46.280567 C 38.169358,45.360865 34.791144,39.017379 31.424367,32.183984 26.456587,22.101034 25.425248,19.266504 25.951872,17.143226 26.609995,14.4896 29.214,12.709662 31.089177,13.631674 c 1.588489,0.78106 2.729414,2.711133 8.622137,14.586162 5.928005,11.946096 6.805563,16.36307 3.676566,18.504944 -2.340304,1.602022 -2.800158,1.556376 -4.456381,-0.442213 z M 68.05629,38.848588 C 65.898286,36.738991 65.868391,34.442766 67.81342,20.166893 70.083872,3.5016093 70.93031,0.94025724 74.05526,1.279215 c 4.446502,0.4823034 4.710092,2.8809139 2.218014,20.181204 -1.347512,9.354291 -2.830905,16.522454 -3.556021,17.183314 -1.509017,1.375285 -3.379404,1.457503 -4.660852,0.204772 z"
       id="path2"
       sodipodi:nodetypes="ssssscsssscsscssscssssssssssssssssssssssssssscssssssssssssssssssssssssssscsssssssssssssssscsssscc"
       inkscape:label="path2" /></g></svg>
